<?xml version="1.0" encoding="utf-8"?>
<!-- Generator: Adobe Illustrator 18.1.1, SVG Export Plug-In . SVG Version: 6.00 Build 0)  -->
<!DOCTYPE svg PUBLIC "-//W3C//DTD SVG 1.1//EN" "http://www.w3.org/Graphics/SVG/1.1/DTD/svg11.dtd">
<svg version="1.1" id="Layer_1" xmlns="http://www.w3.org/2000/svg" xmlns:xlink="http://www.w3.org/1999/xlink" x="0px" y="0px" width="104"
	 viewBox="0 0 430.9 153.1" enable-background="new 0 0 430.9 153.1" xml:space="preserve">
<g>
	<polygon fill="#939598" points="34.8,25.3 74.2,54.4 74.2,134.7 97.8,113 97.8,47.7 50.9,12.8 	"/>
	<polyline fill="#C3DB62" points="63.8,126.8 63.8,134.7 0,134.7 0,51.3 30.6,29.2 47.1,42.4 21,60 21,111.2 63.8,111.2 	"/>
	<g>
		<path fill="#C3DB62" d="M122.6,49.1h12.9l23,46.6l21-46.6H192l-48,101.5h-12.6l21-42.6L122.6,49.1z"/>
		<path fill="#C3DB62" d="M207.1,114.1h-11.1V0h11.1V114.1z"/>
		<path fill="#C3DB62" d="M216,81.8c0-19.1,15.1-34.4,34.2-34.4c19.1,0,34.2,15.4,34.2,34.4c0,19.1-15.2,34.2-34.2,34.2
			C231.2,115.9,216,100.9,216,81.8z M227,81.6c0,13.3,9.4,24.1,23.1,24.1c13.7,0,23.1-10.8,23.1-24.1c0-13.1-9.4-24.1-23.1-24.1
			C236.4,57.6,227,68.5,227,81.6z"/>
		<path fill="#C3DB62" d="M304.1,58.4h0.3c5.4-7.2,13.4-11.1,22.4-11.1c19.1,0,31.1,16.5,31.1,34.4c0,18.5-11.8,34.2-31.3,34.2
			c-8.9,0-17-3.9-22.3-10.9h-0.3v45.7H293V49.1h11.1V58.4z M303.5,80.9c0,12.7,7.5,24.8,21.3,24.8c14.2,0,21.7-11.5,21.7-24.6
			c0-13-8.2-23.5-21.9-23.5C311.8,57.6,303.5,68.8,303.5,80.9z"/>
		<path fill="#C3DB62" d="M361.7,81.8c0-19.1,15.1-34.4,34.2-34.4c19.1,0,34.2,15.4,34.2,34.4c0,19.1-15.2,34.2-34.2,34.2
			C376.9,115.9,361.7,100.9,361.7,81.8z M372.7,81.6c0,13.3,9.4,24.1,23.1,24.1c13.7,0,23.1-10.8,23.1-24.1
			c0-13.1-9.4-24.1-23.1-24.1C382.1,57.6,372.7,68.5,372.7,81.6z"/>
	</g>
</g>
</svg>
